<svg xmlns="http://www.w3.org/2000/svg" width="24" height="24" viewBox="0 0 24 24">
  <path fill="white" d="M20.14 7.79c1.19 0 2.15.96 2.15 2.14 0 1.18-.96 2.14-2.15 2.14A2.14 2.14 0 0 1 18 9.93c0-1.18.96-2.14 2.14-2.14M3 6.93a3 3 0 0 1 3 3v.31l6.33 3.3c.51-.39 1.13-.61 1.81-.61l2.15-3c0-2.13 1.71-3.86 3.85-3.86A3.86 3.86 0 0 1 24 9.93a3.86 3.86 0 0 1-3.86 3.86l-3 2.14a3 3 0 0 1-3 3c-1.64 0-3-1.34-3-3v-.11l-6.5-3.38c-.47.31-1.04.49-1.64.49a3 3 0 0 1-3-3 3 3 0 0 1 3-3m12.03 8.01c.64.32.89 1.09.56 1.73-.32.63-1.09.88-1.72.56l-1.84-.96c.16 1.02 1.05 1.8 2.11 1.8 1.19 0 2.15-.96 2.15-2.14 0-1.18-.96-2.14-2.15-2.14-.33 0-.64.07-.92.21l1.81.94M3 7.79c-1.18 0-2.14.96-2.14 2.14 0 1.18.96 2.14 2.14 2.14.24 0 .5-.04.7-.12l-1.42-.73c-.64-.33-.89-1.1-.57-1.72.33-.64 1.1-.9 1.73-.57l1.7.88c-.06-1.13-1-2.02-2.14-2.02m17.14-.86c-1.64 0-3 1.34-3 3a3 3 0 0 0 3 3 3 3 0 0 0 3-3 3 3 0 0 0-3-3z"/>
</svg>
